<?xml version="1.0" encoding="UTF-8" standalone="no"?>
<!DOCTYPE svg PUBLIC "-//W3C//DTD SVG 1.1//EN"
"http://www.w3.org/Graphics/SVG/1.1/DTD/svg11.dtd">
<svg width="30cm" height="20cm" viewBox="0 0 800 600" xmlns="http://www.w3.org/2000/svg" version="1.1">
<g fill="white" stroke="black" stroke-width="0.5">
<circle cx="400" cy="300" r="200"/>
<circle cx="562.30339887498951" cy="417.92032172249731" r="0.61803398874989479"/>
<circle cx="562.92232988463047" cy="417.64475588277816" r="0.059470348295514994"/>
<circle cx="562.92839887498951" cy="418.37441080250068" r="0.1545084971874737"/>
<circle cx="562.23258038778101" cy="418.59411461989595" r="0.059470348295514994"/>
<circle cx="553.85580869843602" cy="429.10035233333986" r="0.8444941810510338"/>
<circle cx="554.72573447160551" cy="428.78372524588514" r="0.081261490459814498"/>
<circle cx="554.66445879173659" cy="429.77889032837982" r="0.21112354526275845"/>
<circle cx="554.86662131506171" cy="429.94852482713981" r="0.052780886315689612"/>
<circle cx="553.69505291311339" cy="430.01204369603875" r="0.081261490459814498"/>
<circle cx="542.26697514378793" cy="442.26697514378793" r="1.1958857261409055"/>
<circle cx="543.14996547920828" cy="441.38398480836759" r="0.052851181654901991"/>
<circle cx="543.53326515277172" cy="441.92767375849712" r="0.11507415765124716"/>
<circle cx="543.32399877688601" cy="443.32399877688596" r="0.29897143153522637"/>
<circle cx="543.58825468516056" cy="443.58825468516045" r="0.074742857883806593"/>
<circle cx="541.92767375849712" cy="443.53326515277166" r="0.11507415765124716"/>
<circle cx="541.38398480836759" cy="443.14996547920828" r="0.052851181654901991"/>
<circle cx="525.80213215351057" cy="457.75088411390414" r="1.7709540372145229"/>
<circle cx="527.24791047977499" cy="456.59791437248532" r="0.078265850555255076"/>
<circle cx="527.72181288864704" cy="457.46153879869814" r="0.17041013168470992"/>
<circle cx="527.57420930693218" cy="458.23994633322735" r="0.067371095086083285"/>
<circle cx="527.18234688071539" cy="459.48161863927686" r="0.44273850930363073"/>
<circle cx="527.52740056251662" cy="459.91430227062006" r="0.11068462732590768"/>
<circle cx="525.8846082987003" cy="459.5873581751211" r="0.067371095086083285"/>
<circle cx="525.09287217937674" cy="459.55804905529089" r="0.17041013168470992"/>
<circle cx="524.35635382724615" cy="458.90385385532295" r="0.078265850555255076"/>
<circle cx="501.38888888888891" cy="475.61070687851117" r="2.7777777777777777"/>
<circle cx="503.29128558458302" cy="473.49788130010364" r="0.065309472476941452"/>
<circle cx="503.90082966948734" cy="474.16043719264428" r="0.1227615939559977"/>
<circle cx="504.43395845795817" cy="475.61070687851117" r="0.26729179129149344"/>
<circle cx="504.76807319707251" cy="475.61070687851117" r="0.06682294782287336"/>
<circle cx="504.02305220016535" cy="476.78351194647877" r="0.10567294625501705"/>
<circle cx="503.72966117827053" cy="477.20661840306985" r="0.055268022232529683"/>
<circle cx="503.125" cy="478.61773953054046" r="0.69444444444444442"/>
<circle cx="503.88626739226731" cy="478.61773953054046" r="0.06682294782287336"/>
<circle cx="503.55902777777777" cy="479.36949769354777" r="0.1736111111111111"/>
<circle cx="502.74436630386634" cy="479.27701643131667" r="0.06682294782287336"/>
<circle cx="501.60060266665829" cy="478.43583090786962" r="0.055268022232529683"/>
<circle cx="501.08748621579775" cy="478.47836175777729" r="0.10567294625501707"/>
<circle cx="499.86635410435429" cy="478.2478144816161" r="0.26729179129149344"/>
<circle cx="499.69929673479709" cy="478.53716633346795" r="0.06682294782287336"/>
<circle cx="498.87694810829049" cy="477.06097656437805" r="0.1227615939559977"/>
<circle cx="498.60792991637538" cy="476.20181795585404" r="0.065309472476941466"/>
<circle cx="463.25648393100022" cy="494.68343921403027" r="4.7022820183397851"/>
<circle cx="466.44662531612175" cy="491.14042826763978" r="0.065309472476941452"/>
<circle cx="467.1501527152808" cy="491.85452325228346" r="0.11055728090000842"/>
<circle cx="467.92626223976032" cy="493.16613626447293" r="0.20781346888872651"/>
<circle cx="468.17331518196096" cy="493.08586389753964" r="0.051953367222181628"/>
<circle cx="468.01456231269987" cy="494.25520440875931" r="0.075028410640435778"/>
<circle cx="468.29859938881657" cy="495.75517393928698" r="0.45247729818233534"/>
<circle cx="468.85183636832102" cy="495.87276808943915" r="0.11311932454558384"/>
<circle cx="467.50672971863099" cy="496.84904760943465" r="0.067880345513124857"/>
<circle cx="467.20543135573081" cy="497.5525174589543" r="0.17888543819998318"/>
<circle cx="466.57071045860522" cy="498.1498483959262" r="0.093558897767962002"/>
<circle cx="466.18669574320165" cy="498.43393930361083" r="0.057170910969270544"/>
<circle cx="465.07284025101364" cy="500.27360915777973" r="1.1755705045849463"/>
<circle cx="466.2402848282037" cy="499.89428342039037" r="0.051953367222181628"/>
<circle cx="466.33336911546775" cy="500.54154283909389" r="0.11311932454558384"/>
<circle cx="465.52692933101702" cy="501.67115164371711" r="0.29389262614623657"/>
<circle cx="465.64045160101784" cy="502.02053726520143" r="0.073473156536559142"/>
<circle cx="464.21053844423903" cy="501.23129233594341" r="0.11311932454558384"/>
<circle cx="463.90539567382359" cy="500.6529348951691" r="0.051953367222181628"/>
<circle cx="463.09038141918808" cy="499.43999281321089" r="0.057170910969270544"/>
<circle cx="462.61272254248917" cy="499.43587662732415" r="0.093558897767962002"/>
<circle cx="461.7481202345395" cy="499.32570533070026" r="0.1788854381999832"/>
<circle cx="461.09087553559584" cy="498.93368500166105" r="0.067880345513124857"/>
<circle cx="459.80727670390178" cy="498.51417192668509" r="0.45247729818233534"/>
<circle cx="459.42881869278131" cy="498.93449213017283" r="0.11311932454558384"/>
<circle cx="459.15540755658054" cy="497.13371828099793" r="0.075028410640435791"/>
<circle cx="458.58670562224012" cy="496.20074216358762" r="0.20781346888872651"/>
<circle cx="458.33965268003948" cy="496.28101453052091" r="0.051953367222181628"/>
<circle cx="458.44364463176044" cy="494.68343921403027" r="0.11055728090000844"/>
<circle cx="458.5930757529789" cy="493.69220120604621" r="0.065309472476941452"/>
<circle cx="435.00523774832175" cy="498.52456843345271" r="1.5871299004605905"/>
<circle cx="436.63733186104679" cy="498.23678620632387" r="0.070141894702475782"/>
<circle cx="436.64016340767938" cy="499.11963270869694" r="0.15272164587830434"/>
<circle cx="436.19035575922959" cy="499.6690235934081" r="0.060378009361596915"/>
<circle cx="435.34974051699135" cy="500.47834072221656" r="0.39678247511514764"/>
<circle cx="435.43586620915875" cy="500.96678379440755" r="0.099195618778786909"/>
<circle cx="434.28301781654892" cy="500.00533873403168" r="0.060378009361596922"/>
<circle cx="433.6724341393969" cy="499.64292345013331" r="0.15272164587830434"/>
<circle cx="433.3731436355967" cy="498.81235066058156" r="0.070141894702475782"/>
<circle cx="400.0" cy="508.83883476483186" r="8.8388347648318426"/>
<circle cx="406.28737142894192" cy="502.55146333588993" r="0.052851181654902039"/>
<circle cx="406.97166999344466" cy="503.27911346898975" r="0.078265850555255145"/>
<circle cx="407.76097010517242" cy="504.35803658543796" r="0.12276159395599781"/>
<circle cx="408.60387375330998" cy="506.04326671848008" r="0.2078134688887267"/>
<circle cx="408.85092669551062" cy="505.9629943515468" r="0.051953367222181676"/>
<circle cx="408.77362928571421" cy="507.29180720302651" r="0.070141894702475852"/>
<circle cx="409.22945976483186" cy="508.83883476483186" r="0.39062499999999956"/>
<circle cx="409.71774101483186" cy="508.83883476483186" r="0.097656249999999889"/>
<circle cx="408.75472099164085" cy="510.83704270128032" r="0.1410301895403763"/>
<circle cx="408.47423924015828" cy="511.59228200454908" r="0.071507675352210531"/>
<circle cx="408.39122500993341" cy="513.68351078314765" r="0.85051727179971459"/>
<circle cx="409.19867101298604" cy="513.21733161592908" r="0.081841062637331902"/>
<circle cx="409.31193696460338" cy="514.21508407802253" r="0.21262931794992865"/>
<circle cx="409.54211495327087" cy="514.34797740174122" r="0.053157329487482162"/>
<circle cx="408.39122500993341" cy="514.61586911758468" r="0.081841062637331902"/>
<circle cx="406.34022261059681" cy="515.17905737542867" r="0.12759403953870863"/>
<circle cx="405.3929790759787" cy="516.26163366248829" r="0.33624925598197863"/>
<circle cx="405.64003201817934" cy="516.60167286553246" r="0.084062313995494659"/>
<circle cx="403.91133023948447" cy="516.96079569618178" r="0.1758617698652577"/>
<circle cx="403.05981425490234" cy="517.24560533790134" r="0.10746361733333623"/>
<circle cx="400.0" cy="519.88737822087171" r="2.2097086912079607"/>
<circle cx="402.15096843832748" cy="519.18848620928372" r="0.051953367222181676"/>
<circle cx="402.30736494120794" cy="519.88737822087171" r="0.097656249999999889"/>
<circle cx="402.09780625248334" cy="521.0985472254506" r="0.21262931794992865"/>
<circle cx="402.32798424115083" cy="521.23144054916929" r="0.053157329487482162"/>
<circle cx="401.34824476899468" cy="521.74307794528579" r="0.084062313995494659"/>
<circle cx="400.0" cy="522.64951408488162" r="0.55242717280199016"/>
<circle cx="400.52445156312086" cy="522.95230633602637" r="0.053157329487482162"/>
<circle cx="400.0" cy="523.34004805088409" r="0.13810679320049754"/>
<circle cx="399.47554843687914" cy="522.95230633602637" r="0.053157329487482162"/>
<circle cx="398.65175523100532" cy="521.74307794528579" r="0.084062313995494659"/>
<circle cx="397.90219374751666" cy="521.0985472254506" r="0.21262931794992865"/>
<circle cx="397.67201575884917" cy="521.23144054916929" r="0.053157329487482162"/>
<circle cx="397.69263505879206" cy="519.88737822087171" r="0.097656249999999889"/>
<circle cx="397.84903156167252" cy="519.18848620928372" r="0.051953367222181683"/>
<circle cx="396.94018574509766" cy="517.24560533790134" r="0.10746361733333623"/>
<circle cx="396.08866976051553" cy="516.96079569618178" r="0.1758617698652577"/>
<circle cx="394.6070209240213" cy="516.26163366248829" r="0.33624925598197863"/>
<circle cx="394.35996798182066" cy="516.60167286553246" r="0.084062313995494659"/>
<circle cx="393.65977738940319" cy="515.17905737542867" r="0.12759403953870863"/>
<circle cx="391.60877499006659" cy="513.68351078314765" r="0.85051727179971459"/>
<circle cx="391.60877499006659" cy="514.61586911758468" r="0.081841062637331902"/>
<circle cx="390.68806303539662" cy="514.21508407802253" r="0.21262931794992865"/>
<circle cx="390.45788504672913" cy="514.34797740174122" r="0.053157329487482162"/>
<circle cx="390.80132898701396" cy="513.21733161592908" r="0.081841062637331902"/>
<circle cx="391.52576075984172" cy="511.59228200454908" r="0.071507675352210531"/>
<circle cx="391.24527900835915" cy="510.83704270128032" r="0.14103018954037633"/>
<circle cx="390.77054023516814" cy="508.83883476483186" r="0.39062499999999956"/>
<circle cx="390.28225898516814" cy="508.83883476483186" r="0.097656249999999889"/>
<circle cx="391.22637071428579" cy="507.29180720302651" r="0.070141894702475879"/>
<circle cx="391.39612624669002" cy="506.04326671848008" r="0.20781346888872673"/>
<circle cx="391.14907330448938" cy="505.9629943515468" r="0.051953367222181683"/>
<circle cx="392.23902989482758" cy="504.35803658543796" r="0.12276159395599781"/>
<circle cx="393.02833000655534" cy="503.27911346898975" r="0.078265850555255159"/>
<circle cx="393.71262857105808" cy="502.55146333588993" r="0.05285118165490206"/>
<circle cx="354.78571577332798" cy="498.09672257873444" r="3.1911489080327748"/>
<circle cx="358.03874442235679" cy="497.80394470113248" r="0.075028410640435778"/>
<circle cx="358.03435018394089" cy="498.83820218363616" r="0.14103018954037619"/>
<circle cx="357.70671636539475" cy="499.50340232539554" r="0.05091715676619385"/>
<circle cx="357.35009055338958" cy="500.47611465432021" r="0.30706844684615053"/>
<circle cx="357.63146192806516" cy="500.73718913703823" r="0.076767111711537633"/>
<circle cx="356.0876298305111" cy="501.14270193536021" r="0.12139851853810936"/>
<circle cx="355.50994165384219" cy="501.26976348362467" r="0.063492655966728553"/>
<circle cx="353.89809397906657" cy="501.98564775669655" r="0.79778722700819371"/>
<circle cx="354.53918767408197" cy="502.58049577559296" r="0.076767111711537633"/>
<circle cx="353.67618853050124" cy="502.95787905118709" r="0.19944680675204843"/>
<circle cx="353.06239363580374" cy="502.24342717333769" r="0.076767111711537633"/>
<circle cx="352.75647994946871" cy="500.64130381761822" r="0.063492655966728553"/>
<circle cx="352.29113082659376" cy="500.27617581218738" r="0.12139851853810937"/>
<circle cx="351.44291440027655" cy="499.12784024529901" r="0.30706844684615053"/>
<circle cx="351.07613157862511" cy="499.24097776230678" r="0.076767111711537633"/>
<circle cx="351.54364970852902" cy="498.09672257873444" r="0.050917156766193856"/>
<circle cx="351.53708136271507" cy="497.35524297383273" r="0.14103018954037619"/>
<circle cx="351.98186979442318" cy="496.4215025921074" r="0.075028410640435791"/>
<circle cx="337.69660112501055" cy="491.75014502761837" r="1.6180339887498949"/>
<circle cx="339.30345073420699" cy="492.27224211453046" r="0.071507675352210462"/>
<circle cx="338.88345774184472" cy="493.06828283958225" r="0.15569539316045264"/>
<circle cx="338.21562225533643" cy="493.34752781586849" r="0.061553670743505061"/>
<circle cx="337.07160112501055" cy="493.67369723835293" r="0.40450849718747373"/>
<circle cx="336.91535112501055" cy="494.15458529103654" r="0.10112712429686843"/>
<circle cx="336.33778616493794" cy="492.73738188380105" r="0.061553670743505068"/>
<circle cx="335.96163198574391" cy="492.11892410246452" r="0.15569539316045264"/>
<circle cx="336.0897515158141" cy="491.22804794070629" r="0.071507675352210462"/>
<circle cx="290.37749551350623" cy="489.87174742355438" r="19.245008972987527"/>
<circle cx="308.01301490961987" cy="482.0199083080895" r="0.059470348295514994"/>
<circle cx="308.53824925532035" cy="483.26177362969548" r="0.081261490459814498"/>
<circle cx="309.07789980849356" cy="484.86098919457703" r="0.11507415765124716"/>
<circle cx="309.57606042828644" cy="486.97802936143381" r="0.17041013168470989"/>
<circle cx="309.88979627778525" cy="489.87174742355438" r="0.26729179129149344"/>
<circle cx="310.22391101689959" cy="489.87174742355438" r="0.06682294782287336"/>
<circle cx="309.64454445013808" cy="493.96708509905289" r="0.45247729818233534"/>
<circle cx="310.19778142964253" cy="494.08467924920507" r="0.11311932454558384"/>
<circle cx="308.60539983604735" cy="496.50616203001158" r="0.15272164587830434"/>
<circle cx="307.78073174390886" cy="499.91951054594801" r="0.85051727179971381"/>
<circle cx="308.58817774696149" cy="499.4533313787295" r="0.081841062637331832"/>
<circle cx="308.70144369857883" cy="500.45108384082283" r="0.21262931794992845"/>
<circle cx="308.93162168724632" cy="500.58397716454152" r="0.053157329487482113"/>
<circle cx="307.78073174390886" cy="500.85186888038504" r="0.081841062637331832"/>
<circle cx="304.71018246427701" cy="503.17053745131165" r="0.30706844684615048"/>
<circle cx="304.9915538389526" cy="503.43161193402966" r="0.076767111711537619"/>
<circle cx="303.3591005898158" cy="504.28928048387394" r="0.15569539316045264"/>
<circle cx="300.92592592592592" cy="508.14216483797003" r="1.8518518518518523"/>
<circle cx="302.60055311299152" cy="507.17531838072546" r="0.081841062637331818"/>
<circle cx="302.95597230530547" cy="508.14216483797003" r="0.17819452752766235"/>
<circle cx="302.68203480011022" cy="508.92403488328176" r="0.070448630836678058"/>
<circle cx="302.08333333333331" cy="510.14685327265624" r="0.46296296296296308"/>
<circle cx="302.37268518518516" cy="510.64802538132778" r="0.11574074074074077"/>
<circle cx="300.72499081053184" cy="510.05393475748076" r="0.070448630836678072"/>
<circle cx="299.91090273623615" cy="509.90023657337332" r="0.17819452752766235"/>
<circle cx="299.25129873886033" cy="509.1090112952146" r="0.081841062637331818"/>
<circle cx="295.43037380750303" cy="508.72934594121239" r="0.27781359208030054"/>
<circle cx="295.52025311827646" cy="509.06478009556798" r="0.069453398020075136"/>
<circle cx="292.46567448683004" cy="509.73944322140119" r="0.73212364759673965"/>
<circle cx="293.19886074622275" cy="510.06587877575691" r="0.070448630836678072"/>
<circle cx="292.56133418658652" cy="510.649584468466" r="0.18303091189918491"/>
<circle cx="291.81637987436318" cy="510.21118337056311" r="0.070448630836678072"/>
<circle cx="288.91069943447047" cy="509.44478084968472" r="0.38290809016235083"/>
<circle cx="288.87493098770443" cy="509.92207760153633" r="0.095727022540587708"/>
<circle cx="286.99500403093333" cy="509.0548098736819" r="0.23398313633811885"/>
<circle cx="286.94421559939593" cy="509.34284538210676" r="0.058495784084529712"/>
<circle cx="278.34936490538905" cy="510.7050807568877" r="4.8112522432468818"/>
<circle cx="283.22744009645879" cy="510.7050807568877" r="0.06682294782287336"/>
<circle cx="283.16612713954703" cy="511.72891517576232" r="0.11311932454558384"/>
<circle cx="282.70017396298971" cy="513.21702153748606" r="0.21262931794992845"/>
<circle cx="282.9303519516572" cy="513.34991486120475" r="0.053157329487482113"/>
<circle cx="281.93253664308173" cy="514.02977826382698" r="0.076767111711537619"/>
<circle cx="280.98647250849399" cy="515.27268511049158" r="0.46296296296296308"/>
<circle cx="281.27582436034584" cy="515.77385721916312" r="0.11574074074074077"/>
<circle cx="279.61258447888827" cy="515.41948038630221" r="0.069453398020075136"/>
<circle cx="278.87140964871998" cy="515.67200470634941" r="0.18303091189918491"/>
<circle cx="277.98266588563013" cy="515.59833911342025" r="0.095727022540587708"/>
<circle cx="277.50374203474581" cy="515.50084636941961" r="0.058495784084529712"/>
<circle cx="275.34233225335976" cy="515.91341409022107" r="1.2028130608117205"/>
<circle cx="276.43003451775991" cy="516.54139928537063" r="0.053157329487482113"/>
<circle cx="276.00160915413596" cy="517.0553151786221" r="0.11574074074074077"/>
<circle cx="274.59057409035245" cy="517.21549742355444" r="0.30070326520293011"/>
<circle cx="274.02377845180729" cy="515.91341409022107" r="0.11574074074074077"/>
<circle cx="274.25462998895961" cy="515.2854288950715" r="0.053157329487482113"/>
<circle cx="274.61892148966223" cy="513.83529445115175" r="0.058495784084529712"/>
<circle cx="274.29502837123084" cy="513.46928060180812" r="0.095727022540587708"/>
<circle cx="273.7868602148244" cy="512.73643872198181" r="0.18303091189918491"/>
<circle cx="273.63496527597454" cy="511.96830033038691" r="0.069453398020075136"/>
<circle cx="273.07514969917924" cy="510.7050807568877" r="0.46296296296296308"/>
<circle cx="272.49644599547554" cy="510.7050807568877" r="0.11574074074074077"/>
<circle cx="273.67850653563448" cy="509.26431175939302" r="0.076767111711537633"/>
<circle cx="273.9985558477884" cy="508.19313997628927" r="0.21262931794992845"/>
<circle cx="273.7683778591209" cy="508.06024665257058" r="0.053157329487482113"/>
<circle cx="275.05431717229578" cy="507.04555950755474" r="0.11311932454558386"/>
<circle cx="275.91032730985415" cy="506.48054371985069" r="0.06682294782287336"/>
<circle cx="275.45572185059888" cy="502.39260220061078" r="0.23398313633811885"/>
<circle cx="275.23166999887968" cy="502.58060402675295" r="0.058495784084529712"/>
<circle cx="274.16014937687328" cy="500.92854680323592" r="0.38290809016235083"/>
<circle cx="273.76468248800899" cy="501.198171562715" r="0.095727022540587708"/>
<circle cx="272.12747675124763" cy="497.9971792839309" r="0.73212364759673965"/>
<circle cx="272.04358510432178" cy="498.79535498744855" r="0.070448630836678072"/>
<circle cx="271.29144146037919" cy="498.36940617735581" r="0.18303091189918491"/>
<circle cx="271.47818213878077" cy="497.52543913476899" r="0.070448630836678072"/>
<circle cx="271.51989699584823" cy="494.92462571755118" r="0.27781359208030054"/>
<circle cx="271.18446284149263" cy="495.01450502832461" r="0.069453398020075136"/>
<circle cx="269.28063468866685" cy="489.87174742355438" r="1.8518518518518523"/>
<circle cx="269.28063468866685" cy="491.80544033804358" r="0.081841062637331818"/>
<circle cx="268.26561149897708" cy="491.62981915895767" r="0.17819452752766235"/>
<circle cx="267.72546092987665" cy="491.00164729775338" r="0.070448630836678058"/>
<circle cx="266.96581987385201" cy="489.87174742355438" r="0.46296296296296308"/>
<circle cx="266.38711617014832" cy="489.87174742355438" r="0.11574074074074077"/>
<circle cx="267.72546092987665" cy="488.74184754935538" r="0.070448630836678072"/>
<circle cx="268.26561149897708" cy="488.11367568815109" r="0.17819452752766235"/>
<circle cx="269.28063468866685" cy="487.93805450906518" r="0.081841062637331818"/>
<circle cx="271.4007430852127" cy="485.8381141757331" r="0.15569539316045264"/>
<circle cx="271.6940620344879" cy="484.10867143357581" r="0.30706844684615053"/>
<circle cx="271.32727921283646" cy="483.99553391656804" r="0.076767111711537633"/>
<circle cx="272.97425928310361" cy="479.82398430116075" r="0.85051727179971381"/>
<circle cx="272.16681328005097" cy="480.29016346837926" r="0.081841062637331832"/>
<circle cx="272.05354732843364" cy="479.29241100628593" r="0.21262931794992845"/>
<circle cx="271.82336933976615" cy="479.15951768256724" r="0.053157329487482113"/>
<circle cx="272.97425928310361" cy="478.89162596672372" r="0.081841062637331832"/>
<circle cx="275.51797176380524" cy="477.40312652571021" r="0.15272164587830439"/>
<circle cx="277.19730458113304" cy="475.23366242622251" r="0.45247729818233545"/>
<circle cx="276.81884657001257" cy="474.81334222273478" r="0.11311932454558386"/>
<circle cx="280.6213451313667" cy="472.97359927540623" r="0.26729179129149344"/>
<circle cx="280.4542877618095" cy="472.68424742355438" r="0.06682294782287336"/>
<circle cx="283.2842464093024" cy="471.79844346008986" r="0.17041013168470995"/>
<circle cx="285.36673728452888" cy="471.17134312856706" r="0.11507415765124719"/>
<circle cx="287.02152386643036" cy="470.83908643434063" r="0.081261490459814539"/>
<circle cx="288.35962795587028" cy="470.67302005985431" r="0.059470348295515015"/>
<circle cx="256.53713913007118" cy="443.46286086992882" r="2.8871235390977712"/>
<circle cx="259.17006687026145" cy="444.80440456023564" r="0.067880345513124857"/>
<circle cx="258.6688663732873" cy="445.59458811314494" r="0.12759403953870851"/>
<circle cx="257.35628513617218" cy="446.51995538351497" r="0.2778135920803006"/>
<circle cx="257.4461644469456" cy="446.85538953787056" r="0.069453398020075149"/>
<circle cx="256.06831188308774" cy="446.42291961069145" r="0.10983270620832244"/>
<circle cx="255.5646102512766" cy="446.24218872529946" r="0.057443618860889542"/>
<circle cx="253.98525833929702" cy="446.01474166070301" r="0.7217808847744428"/>
<circle cx="254.19004484082228" cy="446.77901528909956" r="0.069453398020075149"/>
<circle cx="253.34728814160349" cy="446.65271185839657" r="0.1804452211936107"/>
<circle cx="253.2209847109005" cy="445.80995515917778" r="0.069453398020075149"/>
<circle cx="253.75781127470052" cy="444.43538974872342" r="0.057443618860889542"/>
<circle cx="253.57708038930858" cy="443.93168811691226" r="0.10983270620832244"/>
<circle cx="253.48004461648506" cy="442.64371486382782" r="0.2778135920803006"/>
<circle cx="253.14461046212944" cy="442.5538355530544" r="0.069453398020075149"/>
<circle cx="254.40541188685503" cy="441.3311336267127" r="0.12759403953870851"/>
<circle cx="255.19559543976439" cy="440.82993312973855" r="0.067880345513124871"/>
<circle cx="232.04123405066002" cy="422.02918641349424" r="7.6084521303612282"/>
<circle cx="239.44044256525788" cy="424.07123821151964" r="0.067371095086083271"/>
<circle cx="239.08843797408969" cy="425.16680375142397" r="0.10567294625501705"/>
<circle cx="238.34132248456052" cy="426.60646859091764" r="0.17888543819998318"/>
<circle cx="237.55772879219927" cy="427.35640346168094" r="0.060378009361596929"/>
<circle cx="236.71101235942012" cy="428.45658485028008" r="0.3362492559819783"/>
<circle cx="236.95806530162079" cy="428.79662405332425" r="0.084062313995494575"/>
<circle cx="235.07925884662379" cy="429.13699876283204" r="0.12139851853810936"/>
<circle cx="234.41139619015581" cy="429.32379541065654" r="0.061553670743505075"/>
<circle cx="232.91306161949737" cy="430.32407164465172" r="0.73212364759673965"/>
<circle cx="233.64624787889008" cy="430.65050719900745" r="0.070448630836678072"/>
<circle cx="233.00872131925385" cy="431.23421289171654" r="0.18303091189918491"/>
<circle cx="232.26376700703051" cy="430.79581179381364" r="0.070448630836678072"/>
<circle cx="230.83382829122314" cy="429.65244635596622" r="0.10983270620832243"/>
<circle cx="229.60065032239015" cy="429.54053077508826" r="0.28944271909999159"/>
<circle cx="229.48884692351515" cy="429.88462625520606" r="0.072360679774997896"/>
<circle cx="228.36409207834541" cy="428.86246121568195" r="0.15138147653853917"/>
<circle cx="227.73491376582257" cy="428.41356878570895" r="0.09250447711607393"/>
<circle cx="224.34702520772188" cy="427.6193563572437" r="1.9021130325903071"/>
<circle cx="225.51446978491191" cy="429.22620596644015" r="0.084062313995494575"/>
<circle cx="224.56498209993123" cy="429.69307766503306" r="0.18303091189918491"/>
<circle cx="223.73687927565442" cy="429.49719244764219" r="0.072360679774997896"/>
<circle cx="222.42347299698736" cy="429.01689884318108" r="0.47552825814757677"/>
<circle cx="221.94258494430372" cy="429.3662844646654" r="0.11888206453689419"/>
<circle cx="222.37255149535659" cy="427.6193563572437" r="0.07236067977499791"/>
<circle cx="222.44215142870254" cy="426.77125190893224" r="0.18303091189918491"/>
<circle cx="223.17958063053186" cy="426.01250674804726" r="0.084062313995494575"/>
<circle cx="224.63859944180899" cy="424.15185773004072" r="0.09250447711607393"/>
<circle cx="224.40610416222933" cy="423.41475820649634" r="0.15138147653853917"/>
<circle cx="224.14333920119881" cy="422.02918641349424" r="0.28944271909999164"/>
<circle cx="223.78153580232382" cy="422.02918641349424" r="0.07236067977499791"/>
<circle cx="224.41797410818802" cy="420.82178065405736" r="0.10983270620832243"/>
<circle cx="224.42173893458261" cy="418.63676862024829" r="0.73212364759673965"/>
<circle cx="223.77244432211575" cy="419.10850876941021" r="0.070448630836678072"/>
<circle cx="223.5857036437142" cy="418.26454172682338" r="0.18303091189918491"/>
<circle cx="224.33784728765673" cy="417.83859291673065" r="0.070448630836678072"/>
<circle cx="225.83606901061185" cy="417.52087011860715" r="0.061553670743505075"/>
<circle cx="226.22010409050444" cy="416.94341832585314" r="0.12139851853810937"/>
<circle cx="227.37145574189992" cy="415.60178797670841" r="0.3362492559819783"/>
<circle cx="227.12440279969925" cy="415.26174877366424" r="0.084062313995494575"/>
<circle cx="228.67944018777908" cy="415.13648754183174" r="0.06037800936159695"/>
<circle cx="229.63481440104013" cy="414.62298827432403" r="0.17888543819998323"/>
<circle cx="231.23488841094687" cy="414.35732012118996" r="0.10567294625501705"/>
<circle cx="232.38560855747025" cy="414.36109223127556" r="0.067371095086083285"/>
<circle cx="216.22100316512874" cy="388.50330034558317" r="3.9792976007421372"/>
<circle cx="219.55451772035278" cy="390.77605208657877" r="0.055268022232529683"/>
<circle cx="219.03560216593249" cy="391.44714010381227" r="0.093558897767962002"/>
<circle cx="218.02385924947723" cy="392.24696957967342" r="0.17586176986525756"/>
<circle cx="217.12060862884107" cy="392.44472940994535" r="0.063492655966728553"/>
<circle cx="215.8950151256042" cy="392.8533084246385" r="0.38290809016235089"/>
<circle cx="215.85924667883816" cy="393.33060517649011" r="0.095727022540587722"/>
<circle cx="214.88775206176248" cy="392.31351309153513" r="0.057443618860889542"/>
<circle cx="214.26360379567254" cy="392.14075788457063" r="0.15138147653853917"/>
<circle cx="213.69058748164343" cy="391.6763412504734" r="0.079174046976360643"/>
<circle cx="211.73947409714441" cy="390.66149099817255" r="0.99482440018553431"/>
<circle cx="211.65797708726328" cy="391.74899301793636" r="0.095727022540587722"/>
<circle cx="210.61909183014834" cy="391.2010386613199" r="0.24870610004638358"/>
<circle cx="210.33899626339931" cy="391.33592557710676" r="0.062176525011595894"/>
<circle cx="210.83841822630262" cy="390.04716150740109" r="0.095727022540587722"/>
<circle cx="212.16253151741023" cy="388.50330034558317" r="0.079174046976360643"/>
<circle cx="212.15670579998698" cy="387.76573911613423" r="0.1513814765385392"/>
<circle cx="212.41079041917678" cy="387.17004924221692" r="0.057443618860889542"/>
<circle cx="212.61677968176156" cy="386.04598238249741" r="0.38290809016235089"/>
<circle cx="212.22131279289729" cy="385.77635762301833" r="0.095727022540587722"/>
<circle cx="213.70036466901689" cy="385.34251964587315" r="0.063492655966728553"/>
<circle cx="214.41814708078024" cy="384.75963111149292" r="0.17586176986525756"/>
<circle cx="215.67429033612706" cy="384.46730416866961" r="0.093558897767962015"/>
<circle cx="216.52250663171421" cy="384.48001618637619" r="0.055268022232529683"/>
<circle cx="209.77649663689655" cy="369.23569308200649" r="2.4316240815116248"/>
<circle cx="211.30875183375045" cy="371.19689029960398" r="0.057170910969270544"/>
<circle cx="210.64491577557195" cy="371.62165505613939" r="0.10746361733333615"/>
<circle cx="209.31361880114113" cy="371.8608037366302" r="0.2339831363381189"/>
<circle cx="209.26283036960376" cy="372.14883924505506" r="0.058495784084529726"/>
<circle cx="208.36502185946409" cy="371.32829049506807" r="0.09250447711607393"/>
<circle cx="206.92027262949432" cy="370.27527360309745" r="0.6079060203779062"/>
<circle cx="206.80455317055547" cy="370.93155126675339" r="0.058495784084529726"/>
<circle cx="206.20621662764376" cy="370.5351687333702" r="0.15197650509447655"/>
<circle cx="206.40977923030141" cy="369.84691878011625" r="0.058495784084529726"/>
<circle cx="207.35014853786376" cy="368.5399489603642" r="0.092504477116073944"/>
<circle cx="207.73452304012491" cy="367.52227379008167" r="0.2339831363381189"/>
<circle cx="207.51047118840572" cy="367.3342719639395" r="0.058495784084529726"/>
<circle cx="208.90807749822116" cy="366.84973110787359" r="0.10746361733333615"/>
<circle cx="209.68963894426327" cy="366.74841419619003" r="0.057170910969270558"/>
<circle cx="150.0" cy="300.0" r="50.0"/>
<circle cx="190.57584971874738" cy="329.4800804306243" r="0.1545084971874737"/>
<circle cx="188.46395217460901" cy="332.27508808333494" r="0.21112354526275845"/>
<circle cx="188.66611469793415" cy="332.44472258209493" r="0.052780886315689612"/>
<circle cx="185.56674378594698" cy="335.56674378594698" r="0.29897143153522637"/>
<circle cx="185.8309996942215" cy="335.83099969422148" r="0.074742857883806593"/>
<circle cx="181.45053303837764" cy="339.43772102847606" r="0.44273850930363073"/>
<circle cx="181.79558672017885" cy="339.87040465981926" r="0.11068462732590768"/>
<circle cx="175.34722222222223" cy="343.90267671962778" r="0.69444444444444442"/>
<circle cx="176.10848961448954" cy="343.90267671962778" r="0.06682294782287336"/>
<circle cx="175.78125" cy="344.65443488263509" r="0.1736111111111111"/>
<circle cx="174.96658852608857" cy="344.56195362040398" r="0.06682294782287336"/>
<circle cx="165.81412098275004" cy="348.6708598035076" r="1.1755705045849463"/>
<circle cx="166.98156555994007" cy="348.29153406611823" r="0.051953367222181628"/>
<circle cx="167.07464984720411" cy="348.93879348482176" r="0.11311932454558384"/>
<circle cx="166.26821006275338" cy="350.06840228944498" r="0.29389262614623657"/>
<circle cx="166.38173233275421" cy="350.41778791092929" r="0.073473156536559142"/>
<circle cx="164.95181917597543" cy="349.62854298167127" r="0.11311932454558384"/>
<circle cx="164.64667640556002" cy="349.05018554089696" r="0.051953367222181628"/>
<circle cx="158.75130943708044" cy="349.63114210836318" r="0.39678247511514764"/>
<circle cx="158.83743512924784" cy="350.11958518055417" r="0.099195618778786909"/>
<circle cx="150.0" cy="352.20970869120794" r="2.2097086912079589"/>
<circle cx="152.15096843832748" cy="351.51081667962001" r="0.051953367222181634"/>
<circle cx="152.30736494120796" cy="352.20970869120794" r="0.097656249999999806"/>
<circle cx="152.09780625248337" cy="353.42087769578688" r="0.21262931794992848"/>
<circle cx="152.32798424115086" cy="353.55377101950558" r="0.05315732948748212"/>
<circle cx="151.34824476899468" cy="354.06540841562202" r="0.084062313995494589"/>
<circle cx="150.0" cy="354.9718445552179" r="0.55242717280198972"/>
<circle cx="150.52445156312083" cy="355.27463680636265" r="0.05315732948748212"/>
<circle cx="150.0" cy="355.66237852122038" r="0.13810679320049743"/>
<circle cx="149.47554843687917" cy="355.27463680636265" r="0.05315732948748212"/>
<circle cx="148.65175523100532" cy="354.06540841562202" r="0.084062313995494603"/>
<circle cx="147.90219374751663" cy="353.42087769578688" r="0.21262931794992848"/>
<circle cx="147.67201575884914" cy="353.55377101950558" r="0.05315732948748212"/>
<circle cx="147.69263505879204" cy="352.20970869120794" r="0.097656249999999806"/>
<circle cx="147.84903156167252" cy="351.51081667962001" r="0.051953367222181641"/>
<circle cx="138.69642894333199" cy="349.52418064468361" r="0.79778722700819371"/>
<circle cx="139.33752263834739" cy="350.11902866358002" r="0.076767111711537633"/>
<circle cx="138.47452349476663" cy="350.49641193917415" r="0.19944680675204843"/>
<circle cx="137.86072860006914" cy="349.78196006132475" r="0.076767111711537633"/>
<circle cx="134.42415028125262" cy="347.93753625690459" r="0.40450849718747373"/>
<circle cx="134.26790028125262" cy="348.4184243095882" r="0.10112712429686843"/>
<circle cx="122.59437387837656" cy="347.46793685588858" r="4.8112522432468818"/>
<circle cx="127.47244906944631" cy="347.46793685588858" r="0.06682294782287336"/>
<circle cx="127.41113611253452" cy="348.49177127476321" r="0.11311932454558384"/>
<circle cx="126.94518293597721" cy="349.979877636487" r="0.21262931794992845"/>
<circle cx="127.17536092464471" cy="350.11277096020569" r="0.053157329487482113"/>
<circle cx="126.17754561606925" cy="350.79263436282787" r="0.076767111711537619"/>
<circle cx="125.23148148148148" cy="352.03554120949246" r="0.46296296296296308"/>
<circle cx="125.52083333333333" cy="352.536713318164" r="0.11574074074074077"/>
<circle cx="123.85759345187576" cy="352.1823364853031" r="0.069453398020075136"/>
<circle cx="123.11641862170751" cy="352.4348608053503" r="0.18303091189918491"/>
<circle cx="122.22767485861762" cy="352.36119521242114" r="0.095727022540587708"/>
<circle cx="121.74875100773333" cy="352.26370246842043" r="0.058495784084529712"/>
<circle cx="119.58734122634726" cy="352.6762701892219" r="1.2028130608117205"/>
<circle cx="120.67504349074743" cy="353.30425538437152" r="0.053157329487482113"/>
<circle cx="120.2466181271235" cy="353.81817127762287" r="0.11574074074074077"/>
<circle cx="118.83558306333994" cy="353.97835352255521" r="0.30070326520293011"/>
<circle cx="118.26878742479481" cy="352.6762701892219" r="0.11574074074074077"/>
<circle cx="118.4996389619471" cy="352.04828499407228" r="0.053157329487482113"/>
<circle cx="118.86393046264972" cy="350.5981505501527" r="0.058495784084529712"/>
<circle cx="118.54003734421832" cy="350.23213670080895" r="0.095727022540587708"/>
<circle cx="118.03186918781191" cy="349.4992948209827" r="0.18303091189918491"/>
<circle cx="117.87997424896206" cy="348.7311564293878" r="0.069453398020075136"/>
<circle cx="117.32015867216671" cy="347.46793685588858" r="0.46296296296296308"/>
<circle cx="116.741454968463" cy="347.46793685588858" r="0.11574074074074077"/>
<circle cx="117.92351550862197" cy="346.02716785839391" r="0.076767111711537633"/>
<circle cx="118.2435648207759" cy="344.95599607529016" r="0.21262931794992845"/>
<circle cx="118.01338683210841" cy="344.82310275157147" r="0.053157329487482113"/>
<circle cx="119.29932614528326" cy="343.80841560655563" r="0.11311932454558386"/>
<circle cx="120.15533628284167" cy="343.24339981885157" r="0.06682294782287336"/>
<circle cx="114.1342847825178" cy="335.8657152174822" r="0.7217808847744428"/>
<circle cx="114.33907128404304" cy="336.62998884587876" r="0.069453398020075149"/>
<circle cx="113.49631458482425" cy="336.50368541517577" r="0.1804452211936107"/>
<circle cx="113.37001115412126" cy="335.66092871595697" r="0.069453398020075149"/>
<circle cx="108.01030851266501" cy="330.50729660337356" r="1.9021130325903071"/>
<circle cx="109.17775308985503" cy="332.11414621257001" r="0.084062313995494575"/>
<circle cx="108.22826540487435" cy="332.58101791116292" r="0.18303091189918491"/>
<circle cx="107.40016258059754" cy="332.38513269377205" r="0.072360679774997896"/>
<circle cx="106.08675630193048" cy="331.90483908931094" r="0.47552825814757677"/>
<circle cx="105.60586824924684" cy="332.25422471079526" r="0.11888206453689419"/>
<circle cx="106.0358348002997" cy="330.50729660337356" r="0.07236067977499791"/>
<circle cx="106.10543473364565" cy="329.6591921550621" r="0.18303091189918491"/>
<circle cx="106.84286393547498" cy="328.90044699417712" r="0.084062313995494575"/>
<circle cx="104.05525079128219" cy="322.12582508639582" r="0.99482440018553431"/>
<circle cx="103.97375378140106" cy="323.21332710615962" r="0.095727022540587722"/>
<circle cx="102.93486852428612" cy="322.66537274954317" r="0.24870610004638358"/>
<circle cx="102.65477295753709" cy="322.80025966533003" r="0.062176525011595894"/>
<circle cx="103.15419492044039" cy="321.51149559562435" r="0.095727022540587722"/>
<circle cx="102.44412415922415" cy="317.30892327050162" r="0.6079060203779062"/>
<circle cx="102.32840470028529" cy="317.96520093415756" r="0.058495784084529726"/>
<circle cx="101.73006815737359" cy="317.56881840077438" r="0.15197650509447655"/>
<circle cx="101.93363076003124" cy="316.88056844752043" r="0.058495784084529726"/>
<circle cx="87.5" cy="300.0" r="12.5"/>
<circle cx="97.115988043652251" cy="308.06877202083376" r="0.052780886315689612"/>
<circle cx="96.391685946486746" cy="308.89168594648675" r="0.074742857883806593"/>
<circle cx="95.362633259594404" cy="309.85943025711902" r="0.11068462732590768"/>
<circle cx="93.836805555555557" cy="310.97566917990696" r="0.1736111111111111"/>
<circle cx="91.453530245687517" cy="312.16771495087687" r="0.29389262614623657"/>
<circle cx="91.56705251568836" cy="312.51710057236119" r="0.073473156536559142"/>
<circle cx="89.687827359270116" cy="312.40778552709077" r="0.099195618778786909"/>
<circle cx="87.5" cy="313.05242717280197" r="0.55242717280198972"/>
<circle cx="88.024451563120834" cy="313.35521942394672" r="0.05315732948748212"/>
<circle cx="87.5" cy="313.74296113880445" r="0.13810679320049743"/>
<circle cx="86.975548436879166" cy="313.35521942394672" r="0.05315732948748212"/>
<circle cx="84.674107235833006" cy="312.3810451611709" r="0.19944680675204843"/>
<circle cx="83.606037570313163" cy="311.98438406422616" r="0.10112712429686843"/>
<circle cx="80.648593469594147" cy="311.86698421397216" r="1.2028130608117205"/>
<circle cx="81.736295733994311" cy="312.49496940912178" r="0.053157329487482113"/>
<circle cx="81.307870370370381" cy="313.00888530237313" r="0.11574074074074077"/>
<circle cx="79.896835306586823" cy="313.16906754730547" r="0.30070326520293011"/>
<circle cx="79.330039668041692" cy="311.86698421397216" r="0.11574074074074077"/>
<circle cx="79.560891205193983" cy="311.23899901882254" r="0.053157329487482113"/>
<circle cx="78.533571195629449" cy="308.96642880437054" r="0.1804452211936107"/>
<circle cx="77.002577128166251" cy="307.62682415084339" r="0.47552825814757677"/>
<circle cx="76.521689075482612" cy="307.97620977232771" r="0.11888206453689419"/>
<circle cx="76.013812697820541" cy="305.53145627159893" r="0.24870610004638358"/>
<circle cx="75.733717131071515" cy="305.66634318738579" r="0.062176525011595894"/>
<circle cx="75.611031039806036" cy="304.32723081762543" r="0.15197650509447655"/>
<circle cx="71.875" cy="300.0" r="3.125"/>
<circle cx="72.863382561421872" cy="303.04192873771922" r="0.073473156536559142"/>
<circle cx="71.875" cy="303.26310679320051" r="0.13810679320049743"/>
<circle cx="70.16214836739853" cy="302.96674605349301" r="0.30070326520293011"/>
<circle cx="69.250644282041563" cy="301.90670603771082" r="0.11888206453689419"/>
<circle cx="69.003453174455132" cy="301.38286406789973" r="0.062176525011595894"/>
<circle cx="67.96875" cy="300.0" r="0.78125"/>
<circle cx="69.003453174455132" cy="298.61713593210027" r="0.062176525011595894"/>
<circle cx="69.250644282041563" cy="298.09329396228918" r="0.11888206453689421"/>
<circle cx="70.16214836739853" cy="297.03325394650699" r="0.30070326520293011"/>
<circle cx="71.875" cy="296.73689320679949" r="0.13810679320049743"/>
<circle cx="72.863382561421872" cy="296.95807126228078" r="0.073473156536559156"/>
<circle cx="75.611031039806036" cy="295.67276918237462" r="0.15197650509447655"/>
<circle cx="76.013812697820541" cy="294.46854372840107" r="0.24870610004638358"/>
<circle cx="75.733717131071515" cy="294.33365681261421" r="0.062176525011595894"/>
<circle cx="77.002577128166251" cy="292.37317584915661" r="0.47552825814757682"/>
<circle cx="76.521689075482612" cy="292.02379022767229" r="0.11888206453689421"/>
<circle cx="78.533571195629449" cy="291.03357119562946" r="0.1804452211936107"/>
<circle cx="80.648593469594147" cy="288.13301578602784" r="1.2028130608117205"/>
<circle cx="79.560891205193983" cy="288.76100098117746" r="0.053157329487482113"/>
<circle cx="79.330039668041692" cy="288.13301578602784" r="0.11574074074074077"/>
<circle cx="79.896835306586823" cy="286.83093245269453" r="0.30070326520293011"/>
<circle cx="81.307870370370381" cy="286.99111469762687" r="0.11574074074074077"/>
<circle cx="81.736295733994311" cy="287.50503059087822" r="0.053157329487482113"/>
<circle cx="83.606037570313163" cy="288.01561593577384" r="0.10112712429686843"/>
<circle cx="84.674107235832992" cy="287.6189548388291" r="0.19944680675204846"/>
<circle cx="87.5" cy="286.94757282719803" r="0.55242717280198972"/>
<circle cx="86.975548436879166" cy="286.64478057605328" r="0.05315732948748212"/>
<circle cx="87.5" cy="286.25703886119555" r="0.13810679320049743"/>
<circle cx="88.024451563120834" cy="286.64478057605328" r="0.05315732948748212"/>
<circle cx="89.687827359270102" cy="287.59221447290918" r="0.099195618778786951"/>
<circle cx="91.453530245687517" cy="287.83228504912313" r="0.29389262614623662"/>
<circle cx="91.56705251568836" cy="287.48289942763881" r="0.073473156536559156"/>
<circle cx="93.836805555555557" cy="289.02433082009304" r="0.1736111111111111"/>
<circle cx="95.362633259594404" cy="290.14056974288098" r="0.11068462732590771"/>
<circle cx="96.391685946486746" cy="291.10831405351325" r="0.074742857883806621"/>
<circle cx="97.115988043652251" cy="291.93122797916624" r="0.05278088631568964"/>
<circle cx="102.44412415922413" cy="282.69107672949838" r="0.6079060203779062"/>
<circle cx="101.93363076003122" cy="283.11943155247957" r="0.058495784084529726"/>
<circle cx="101.73006815737358" cy="282.43118159922562" r="0.15197650509447655"/>
<circle cx="102.32840470028528" cy="282.03479906584244" r="0.058495784084529726"/>
<circle cx="104.05525079128218" cy="277.87417491360424" r="0.99482440018553431"/>
<circle cx="103.15419492044037" cy="278.4885044043757" r="0.095727022540587722"/>
<circle cx="102.9348685242861" cy="277.33462725045689" r="0.24870610004638358"/>
<circle cx="102.65477295753708" cy="277.19974033467003" r="0.062176525011595894"/>
<circle cx="103.97375378140104" cy="276.78667289384043" r="0.095727022540587722"/>
<circle cx="108.01030851266499" cy="269.49270339662644" r="1.9021130325903073"/>
<circle cx="106.84286393547497" cy="271.09955300582288" r="0.084062313995494589"/>
<circle cx="106.10543473364564" cy="270.3408078449379" r="0.18303091189918491"/>
<circle cx="106.03583480029968" cy="269.49270339662644" r="0.072360679774997896"/>
<circle cx="106.08675630193046" cy="268.09516091068906" r="0.47552825814757682"/>
<circle cx="105.60586824924683" cy="267.74577528920474" r="0.11888206453689421"/>
<circle cx="107.40016258059752" cy="267.61486730622795" r="0.07236067977499791"/>
<circle cx="108.22826540487434" cy="267.41898208883708" r="0.18303091189918491"/>
<circle cx="109.17775308985502" cy="267.88585378742999" r="0.084062313995494589"/>
<circle cx="114.1342847825178" cy="264.1342847825178" r="0.7217808847744428"/>
<circle cx="113.37001115412126" cy="264.33907128404303" r="0.069453398020075149"/>
<circle cx="113.49631458482425" cy="263.49631458482423" r="0.1804452211936107"/>
<circle cx="114.33907128404304" cy="263.37001115412124" r="0.069453398020075149"/>
<circle cx="122.59437387837656" cy="252.53206314411142" r="4.8112522432468818"/>
<circle cx="120.15533628284167" cy="256.75660018114843" r="0.06682294782287336"/>
<circle cx="119.29932614528326" cy="256.19158439344437" r="0.11311932454558384"/>
<circle cx="118.2435648207759" cy="255.04400392470981" r="0.21262931794992845"/>
<circle cx="118.01338683210841" cy="255.17689724842853" r="0.053157329487482113"/>
<circle cx="117.92351550862197" cy="253.97283214160606" r="0.076767111711537619"/>
<circle cx="117.32015867216671" cy="252.53206314411142" r="0.46296296296296308"/>
<circle cx="116.741454968463" cy="252.53206314411142" r="0.11574074074074077"/>
<circle cx="117.87997424896206" cy="251.26884357061223" r="0.069453398020075136"/>
<circle cx="118.03186918781191" cy="250.5007051790173" r="0.18303091189918491"/>
<circle cx="118.54003734421832" cy="249.76786329919102" r="0.095727022540587708"/>
<circle cx="118.86393046264972" cy="249.40184944984733" r="0.058495784084529712"/>
<circle cx="119.58734122634726" cy="247.32372981077808" r="1.2028130608117205"/>
<circle cx="118.4996389619471" cy="247.95171500592767" r="0.053157329487482113"/>
<circle cx="118.26878742479481" cy="247.32372981077808" r="0.11574074074074077"/>
<circle cx="118.83558306333994" cy="246.02164647744473" r="0.30070326520293011"/>
<circle cx="120.2466181271235" cy="246.18182872237711" r="0.11574074074074077"/>
<circle cx="120.67504349074743" cy="246.69574461562848" r="0.053157329487482113"/>
<circle cx="121.74875100773333" cy="247.73629753157954" r="0.058495784084529712"/>
<circle cx="122.22767485861762" cy="247.63880478757883" r="0.095727022540587708"/>
<circle cx="123.11641862170751" cy="247.5651391946497" r="0.18303091189918491"/>
<circle cx="123.85759345187576" cy="247.8176635146969" r="0.069453398020075136"/>
<circle cx="125.23148148148148" cy="247.96445879050751" r="0.46296296296296308"/>
<circle cx="125.52083333333333" cy="247.46328668183597" r="0.11574074074074077"/>
<circle cx="126.17754561606925" cy="249.2073656371721" r="0.076767111711537633"/>
<circle cx="126.94518293597721" cy="250.02012236351302" r="0.21262931794992845"/>
<circle cx="127.17536092464471" cy="249.88722903979431" r="0.053157329487482113"/>
<circle cx="127.41113611253452" cy="251.50822872523679" r="0.11311932454558386"/>
<circle cx="127.47244906944631" cy="252.53206314411142" r="0.06682294782287336"/>
<circle cx="134.42415028125262" cy="252.06246374309541" r="0.40450849718747373"/>
<circle cx="134.26790028125262" cy="251.58157569041177" r="0.10112712429686843"/>
<circle cx="138.69642894333199" cy="250.47581935531639" r="0.79778722700819382"/>
<circle cx="137.86072860006914" cy="250.21803993867525" r="0.076767111711537647"/>
<circle cx="138.47452349476663" cy="249.50358806082585" r="0.19944680675204846"/>
<circle cx="139.33752263834739" cy="249.88097133641995" r="0.076767111711537647"/>
<circle cx="150.0" cy="247.79029130879204" r="2.2097086912079589"/>
<circle cx="147.84903156167252" cy="248.48918332037996" r="0.051953367222181634"/>
<circle cx="147.69263505879204" cy="247.79029130879204" r="0.097656249999999806"/>
<circle cx="147.90219374751663" cy="246.57912230421309" r="0.21262931794992848"/>
<circle cx="147.67201575884914" cy="246.44622898049437" r="0.05315732948748212"/>
<circle cx="148.65175523100532" cy="245.93459158437793" r="0.084062313995494589"/>
<circle cx="150.0" cy="245.0281554447821" r="0.55242717280198972"/>
<circle cx="149.47554843687917" cy="244.72536319363738" r="0.05315732948748212"/>
<circle cx="150.0" cy="244.33762147877962" r="0.13810679320049743"/>
<circle cx="150.52445156312083" cy="244.72536319363738" r="0.05315732948748212"/>
<circle cx="151.34824476899468" cy="245.93459158437793" r="0.084062313995494603"/>
<circle cx="152.09780625248337" cy="246.57912230421309" r="0.21262931794992848"/>
<circle cx="152.32798424115086" cy="246.44622898049437" r="0.05315732948748212"/>
<circle cx="152.30736494120796" cy="247.79029130879204" r="0.097656249999999806"/>
<circle cx="152.15096843832748" cy="248.48918332037996" r="0.051953367222181641"/>
<circle cx="158.75130943708041" cy="250.36885789163682" r="0.3967824751151478"/>
<circle cx="158.83743512924781" cy="249.88041481944586" r="0.099195618778786951"/>
<circle cx="165.81412098275004" cy="251.32914019649243" r="1.1755705045849465"/>
<circle cx="164.64667640556002" cy="250.9498144591031" r="0.051953367222181634"/>
<circle cx="164.95181917597543" cy="250.37145701832873" r="0.11311932454558386"/>
<circle cx="166.26821006275338" cy="249.93159771055505" r="0.29389262614623662"/>
<circle cx="166.38173233275421" cy="249.58221208907071" r="0.073473156536559156"/>
<circle cx="167.07464984720411" cy="251.06120651517824" r="0.11311932454558386"/>
<circle cx="166.98156555994007" cy="251.70846593388177" r="0.051953367222181634"/>
<circle cx="175.34722222222223" cy="256.09732328037222" r="0.69444444444444442"/>
<circle cx="174.96658852608857" cy="255.43804637959599" r="0.06682294782287336"/>
<circle cx="175.78125" cy="255.34556511736488" r="0.1736111111111111"/>
<circle cx="176.10848961448954" cy="256.09732328037222" r="0.06682294782287336"/>
<circle cx="181.45053303837761" cy="260.56227897152394" r="0.44273850930363084"/>
<circle cx="181.79558672017879" cy="260.12959534018074" r="0.11068462732590771"/>
<circle cx="185.56674378594698" cy="264.43325621405302" r="0.29897143153522648"/>
<circle cx="185.8309996942215" cy="264.16900030577852" r="0.074742857883806621"/>
<circle cx="188.46395217460901" cy="267.72491191666501" r="0.21112354526275856"/>
<circle cx="188.66611469793415" cy="267.55527741790502" r="0.05278088631568964"/>
<circle cx="190.57584971874735" cy="270.51991956937565" r="0.15450849718747375"/>
<circle cx="209.77649663689652" cy="230.76430691799351" r="2.4316240815116248"/>
<circle cx="209.68963894426324" cy="233.25158580380997" r="0.057170910969270544"/>
<circle cx="208.90807749822113" cy="233.15026889212641" r="0.10746361733333615"/>
<circle cx="207.73452304012488" cy="232.47772620991833" r="0.2339831363381189"/>
<circle cx="207.51047118840569" cy="232.6657280360605" r="0.058495784084529726"/>
<circle cx="207.35014853786373" cy="231.46005103963583" r="0.09250447711607393"/>
<circle cx="206.92027262949429" cy="229.72472639690255" r="0.6079060203779062"/>
<circle cx="206.40977923030138" cy="230.15308121988377" r="0.058495784084529726"/>
<circle cx="206.20621662764373" cy="229.46483126662983" r="0.15197650509447655"/>
<circle cx="206.80455317055544" cy="229.06844873324661" r="0.058495784084529726"/>
<circle cx="208.36502185946406" cy="228.67170950493195" r="0.092504477116073944"/>
<circle cx="209.3136188011411" cy="228.13919626336977" r="0.2339831363381189"/>
<circle cx="209.26283036960373" cy="227.85116075494491" r="0.058495784084529726"/>
<circle cx="210.64491577557192" cy="228.37834494386064" r="0.10746361733333615"/>
<circle cx="211.30875183375042" cy="228.80310970039599" r="0.057170910969270558"/>
<circle cx="216.22100316512871" cy="211.49669965441689" r="3.9792976007421372"/>
<circle cx="216.52250663171418" cy="215.51998381362387" r="0.055268022232529683"/>
<circle cx="215.67429033612703" cy="215.53269583133044" r="0.093558897767962002"/>
<circle cx="214.41814708078022" cy="215.24036888850716" r="0.17586176986525756"/>
<circle cx="213.70036466901689" cy="214.65748035412687" r="0.063492655966728553"/>
<circle cx="212.61677968176153" cy="213.95401761750267" r="0.38290809016235089"/>
<circle cx="212.22131279289727" cy="214.22364237698179" r="0.095727022540587722"/>
<circle cx="212.41079041917675" cy="212.82995075778314" r="0.057443618860889542"/>
<circle cx="212.15670579998695" cy="212.23426088386583" r="0.15138147653853917"/>
<circle cx="212.1625315174102" cy="211.49669965441689" r="0.079174046976360643"/>
<circle cx="211.73947409714438" cy="209.33850900182748" r="0.99482440018553431"/>
<circle cx="210.83841822630259" cy="209.95283849259891" r="0.095727022540587722"/>
<circle cx="210.61909183014831" cy="208.79896133868013" r="0.24870610004638358"/>
<circle cx="210.33899626339928" cy="208.66407442289329" r="0.062176525011595894"/>
<circle cx="211.65797708726325" cy="208.25100698206364" r="0.095727022540587722"/>
<circle cx="213.6905874816434" cy="208.32365874952666" r="0.079174046976360643"/>
<circle cx="214.26360379567251" cy="207.8592421154294" r="0.1513814765385392"/>
<circle cx="214.88775206176246" cy="207.68648690846493" r="0.057443618860889542"/>
<circle cx="215.89501512560417" cy="207.14669157536159" r="0.38290809016235089"/>
<circle cx="215.85924667883813" cy="206.66939482350998" r="0.095727022540587722"/>
<circle cx="217.12060862884104" cy="207.5552705900547" r="0.063492655966728553"/>
<circle cx="218.0238592494772" cy="207.75303042032661" r="0.17586176986525756"/>
<circle cx="219.03560216593246" cy="208.55285989618778" r="0.093558897767962015"/>
<circle cx="219.55451772035275" cy="209.22394791342131" r="0.055268022232529683"/>
<circle cx="232.04123405065997" cy="177.97081358650581" r="7.6084521303612291"/>
<circle cx="232.38560855747019" cy="185.63890776872447" r="0.067371095086083271"/>
<circle cx="231.23488841094681" cy="185.64267987881013" r="0.10567294625501707"/>
<circle cx="229.63481440104007" cy="185.377011725676" r="0.17888543819998318"/>
<circle cx="228.67944018777902" cy="184.86351245816829" r="0.060378009361596936"/>
<circle cx="227.37145574189987" cy="184.39821202329168" r="0.33624925598197836"/>
<circle cx="227.1244027996992" cy="184.73825122633588" r="0.084062313995494589"/>
<circle cx="226.22010409050438" cy="183.05658167414691" r="0.12139851853810936"/>
<circle cx="225.83606901061179" cy="182.47912988139288" r="0.061553670743505075"/>
<circle cx="224.42173893458255" cy="181.36323137975177" r="0.73212364759673965"/>
<circle cx="224.33784728765667" cy="182.16140708326941" r="0.070448630836678072"/>
<circle cx="223.58570364371414" cy="181.73545827317665" r="0.18303091189918491"/>
<circle cx="223.77244432211569" cy="180.89149123058982" r="0.070448630836678072"/>
<circle cx="224.41797410818796" cy="179.17821934594269" r="0.10983270620832244"/>
<circle cx="224.14333920119876" cy="177.97081358650581" r="0.28944271909999159"/>
<circle cx="223.78153580232376" cy="177.97081358650581" r="0.072360679774997896"/>
<circle cx="224.40610416222927" cy="176.58524179350368" r="0.15138147653853917"/>
<circle cx="224.63859944180894" cy="175.84814226995931" r="0.092504477116073944"/>
<circle cx="224.34702520772183" cy="172.38064364275633" r="1.9021130325903073"/>
<circle cx="223.1795806305318" cy="173.9874932519528" r="0.084062313995494589"/>
<circle cx="222.44215142870249" cy="173.22874809106781" r="0.18303091189918491"/>
<circle cx="222.37255149535653" cy="172.38064364275633" r="0.072360679774997896"/>
<circle cx="222.4234729969873" cy="170.98310115681895" r="0.47552825814757682"/>
<circle cx="221.94258494430366" cy="170.6337155353346" r="0.11888206453689421"/>
<circle cx="223.73687927565436" cy="170.50280755235781" r="0.07236067977499791"/>
<circle cx="224.56498209993117" cy="170.30692233496697" r="0.18303091189918491"/>
<circle cx="225.51446978491185" cy="170.77379403355985" r="0.084062313995494589"/>
<circle cx="227.73491376582251" cy="171.58643121429111" r="0.092504477116073944"/>
<circle cx="228.36409207834535" cy="171.13753878431811" r="0.15138147653853917"/>
<circle cx="229.60065032239009" cy="170.4594692249118" r="0.28944271909999164"/>
<circle cx="229.4888469235151" cy="170.115373744794" r="0.07236067977499791"/>
<circle cx="230.83382829122309" cy="170.34755364403381" r="0.10983270620832244"/>
<circle cx="232.91306161949734" cy="169.67592835534833" r="0.73212364759673965"/>
<circle cx="232.26376700703048" cy="169.20418820618639" r="0.070448630836678072"/>
<circle cx="233.00872131925382" cy="168.76578710828352" r="0.18303091189918491"/>
<circle cx="233.64624787889005" cy="169.34949280099264" r="0.070448630836678072"/>
<circle cx="234.41139619015576" cy="170.67620458934351" r="0.061553670743505075"/>
<circle cx="235.07925884662373" cy="170.86300123716802" r="0.12139851853810937"/>
<circle cx="236.71101235942007" cy="171.54341514971995" r="0.33624925598197836"/>
<circle cx="236.95806530162073" cy="171.20337594667575" r="0.084062313995494589"/>
<circle cx="237.55772879219921" cy="172.64359653831912" r="0.060378009361596957"/>
<circle cx="238.34132248456046" cy="173.39353140908241" r="0.17888543819998323"/>
<circle cx="239.08843797408963" cy="174.83319624857606" r="0.10567294625501707"/>
<circle cx="239.44044256525783" cy="175.92876178848039" r="0.067371095086083285"/>
<circle cx="256.53713913007118" cy="156.53713913007118" r="2.8871235390977712"/>
<circle cx="255.19559543976439" cy="159.17006687026145" r="0.067880345513124857"/>
<circle cx="254.40541188685503" cy="158.66886637328733" r="0.12759403953870851"/>
<circle cx="253.48004461648506" cy="157.3562851361722" r="0.2778135920803006"/>
<circle cx="253.14461046212944" cy="157.4461644469456" r="0.069453398020075149"/>
<circle cx="253.57708038930858" cy="156.06831188308774" r="0.10983270620832244"/>
<circle cx="253.75781127470052" cy="155.5646102512766" r="0.057443618860889542"/>
<circle cx="253.98525833929702" cy="153.98525833929702" r="0.7217808847744428"/>
<circle cx="253.2209847109005" cy="154.19004484082228" r="0.069453398020075149"/>
<circle cx="253.34728814160349" cy="153.34728814160349" r="0.1804452211936107"/>
<circle cx="254.19004484082228" cy="153.2209847109005" r="0.069453398020075149"/>
<circle cx="255.5646102512766" cy="153.75781127470052" r="0.057443618860889542"/>
<circle cx="256.06831188308774" cy="153.57708038930858" r="0.10983270620832244"/>
<circle cx="257.35628513617218" cy="153.48004461648506" r="0.2778135920803006"/>
<circle cx="257.4461644469456" cy="153.14461046212944" r="0.069453398020075149"/>
<circle cx="258.6688663732873" cy="154.40541188685503" r="0.12759403953870851"/>
<circle cx="259.17006687026145" cy="155.19559543976439" r="0.067880345513124871"/>
<circle cx="290.37749551350623" cy="110.12825257644562" r="19.245008972987527"/>
<circle cx="288.35962795587034" cy="129.32697994014566" r="0.059470348295514994"/>
<circle cx="287.02152386643036" cy="129.1609135656594" r="0.081261490459814498"/>
<circle cx="285.36673728452888" cy="128.82865687143294" r="0.11507415765124716"/>
<circle cx="283.2842464093024" cy="128.20155653991017" r="0.17041013168470989"/>
<circle cx="280.6213451313667" cy="127.02640072459377" r="0.26729179129149344"/>
<circle cx="280.4542877618095" cy="127.31575257644562" r="0.06682294782287336"/>
<circle cx="277.19730458113304" cy="124.76633757377752" r="0.45247729818233534"/>
<circle cx="276.81884657001257" cy="125.18665777726527" r="0.11311932454558384"/>
<circle cx="275.51797176380524" cy="122.59687347428978" r="0.15272164587830434"/>
<circle cx="272.97425928310361" cy="120.17601569883924" r="0.85051727179971381"/>
<circle cx="272.97425928310361" cy="121.10837403327628" r="0.081841062637331832"/>
<circle cx="272.05354732843364" cy="120.70758899371405" r="0.21262931794992845"/>
<circle cx="271.82336933976615" cy="120.84048231743276" r="0.053157329487482113"/>
<circle cx="272.16681328005097" cy="119.70983653162071" r="0.081841062637331832"/>
<circle cx="271.6940620344879" cy="115.89132856642419" r="0.30706844684615048"/>
<circle cx="271.32727921283646" cy="116.00446608343196" r="0.076767111711537619"/>
<circle cx="271.4007430852127" cy="114.16188582426693" r="0.15569539316045264"/>
<circle cx="269.28063468866685" cy="110.12825257644562" r="1.8518518518518523"/>
<circle cx="269.28063468866685" cy="112.0619454909348" r="0.081841062637331818"/>
<circle cx="268.26561149897708" cy="111.8863243118489" r="0.17819452752766235"/>
<circle cx="267.72546092987665" cy="111.25815245064464" r="0.070448630836678058"/>
<circle cx="266.96581987385201" cy="110.12825257644562" r="0.46296296296296308"/>
<circle cx="266.38711617014832" cy="110.12825257644562" r="0.11574074074074077"/>
<circle cx="267.72546092987665" cy="108.99835270224659" r="0.070448630836678072"/>
<circle cx="268.26561149897708" cy="108.37018084104234" r="0.17819452752766235"/>
<circle cx="269.28063468866685" cy="108.19455966195643" r="0.081841062637331818"/>
<circle cx="271.51989699584823" cy="105.07537428244882" r="0.27781359208030054"/>
<circle cx="271.18446284149263" cy="104.98549497167541" r="0.069453398020075136"/>
<circle cx="272.12747675124763" cy="102.00282071606912" r="0.73212364759673965"/>
<circle cx="271.47818213878077" cy="102.47456086523106" r="0.070448630836678072"/>
<circle cx="271.29144146037919" cy="101.63059382264424" r="0.18303091189918491"/>
<circle cx="272.04358510432178" cy="101.20464501255148" r="0.070448630836678072"/>
<circle cx="274.16014937687328" cy="99.071453196764068" r="0.38290809016235083"/>
<circle cx="273.76468248800899" cy="98.801828437284954" r="0.095727022540587708"/>
<circle cx="275.45572185059888" cy="97.607397799389233" r="0.23398313633811885"/>
<circle cx="275.23166999887968" cy="97.419395973247063" r="0.058495784084529712"/>
<circle cx="278.34936490538905" cy="89.294919243112275" r="4.8112522432468818"/>
<circle cx="275.91032730985415" cy="93.519456280149313" r="0.06682294782287336"/>
<circle cx="275.05431717229578" cy="92.954440492445244" r="0.11311932454558384"/>
<circle cx="273.9985558477884" cy="91.806860023710684" r="0.21262931794992845"/>
<circle cx="273.7683778591209" cy="91.939753347429388" r="0.053157329487482113"/>
<circle cx="273.67850653563448" cy="90.735688240606919" r="0.076767111711537619"/>
<circle cx="273.07514969917924" cy="89.294919243112275" r="0.46296296296296308"/>
<circle cx="272.49644599547554" cy="89.294919243112275" r="0.11574074074074077"/>
<circle cx="273.63496527597454" cy="88.031699669613076" r="0.069453398020075136"/>
<circle cx="273.7868602148244" cy="87.263561278018145" r="0.18303091189918491"/>
<circle cx="274.29502837123084" cy="86.530719398191891" r="0.095727022540587708"/>
<circle cx="274.61892148966223" cy="86.164705548848175" r="0.058495784084529712"/>
<circle cx="275.34233225335976" cy="84.086585909778947" r="1.2028130608117205"/>
<circle cx="274.25462998895961" cy="84.714571104928552" r="0.053157329487482113"/>
<circle cx="274.02377845180729" cy="84.086585909778947" r="0.11574074074074077"/>
<circle cx="274.59057409035245" cy="82.784502576445618" r="0.30070326520293011"/>
<circle cx="276.00160915413596" cy="82.944684821377976" r="0.11574074074074077"/>
<circle cx="276.43003451775991" cy="83.458600714629341" r="0.053157329487482113"/>
<circle cx="277.50374203474581" cy="84.499153630580395" r="0.058495784084529712"/>
<circle cx="277.98266588563013" cy="84.401660886579691" r="0.095727022540587708"/>
<circle cx="278.87140964871998" cy="84.327995293650574" r="0.18303091189918491"/>
<circle cx="279.61258447888827" cy="84.580519613697774" r="0.069453398020075136"/>
<circle cx="280.98647250849399" cy="84.727314889508364" r="0.46296296296296308"/>
<circle cx="281.27582436034584" cy="84.22614278083681" r="0.11574074074074077"/>
<circle cx="281.93253664308173" cy="85.970221736172959" r="0.076767111711537633"/>
<circle cx="282.70017396298971" cy="86.782978462513867" r="0.21262931794992845"/>
<circle cx="282.9303519516572" cy="86.650085138795163" r="0.053157329487482113"/>
<circle cx="283.16612713954703" cy="88.271084824237647" r="0.11311932454558386"/>
<circle cx="283.22744009645879" cy="89.294919243112275" r="0.06682294782287336"/>
<circle cx="286.99500403093333" cy="90.945190126318096" r="0.23398313633811885"/>
<circle cx="286.94421559939593" cy="90.657154617893227" r="0.058495784084529712"/>
<circle cx="288.91069943447047" cy="90.555219150315281" r="0.38290809016235083"/>
<circle cx="288.87493098770443" cy="90.07792239846367" r="0.095727022540587708"/>
<circle cx="292.46567448683004" cy="90.260556778598797" r="0.73212364759673965"/>
<circle cx="291.81637987436318" cy="89.788816629436866" r="0.070448630836678072"/>
<circle cx="292.56133418658652" cy="89.350415531533997" r="0.18303091189918491"/>
<circle cx="293.19886074622275" cy="89.934121224243086" r="0.070448630836678072"/>
<circle cx="295.43037380750303" cy="91.270654058787613" r="0.27781359208030054"/>
<circle cx="295.52025311827646" cy="90.935219904431989" r="0.069453398020075136"/>
<circle cx="300.92592592592592" cy="91.85783516203" r="1.8518518518518523"/>
<circle cx="299.25129873886033" cy="90.890988704785414" r="0.081841062637331818"/>
<circle cx="299.91090273623615" cy="90.099763426626723" r="0.17819452752766235"/>
<circle cx="300.72499081053184" cy="89.946065242519254" r="0.070448630836678058"/>
<circle cx="302.08333333333331" cy="89.853146727343798" r="0.46296296296296308"/>
<circle cx="302.37268518518516" cy="89.351974618672244" r="0.11574074074074077"/>
<circle cx="302.68203480011022" cy="91.07596511671828" r="0.070448630836678072"/>
<circle cx="302.95597230530547" cy="91.85783516203" r="0.17819452752766235"/>
<circle cx="302.60055311299152" cy="92.824681619274585" r="0.081841062637331818"/>
<circle cx="303.3591005898158" cy="95.710719516126062" r="0.15569539316045264"/>
<circle cx="304.71018246427701" cy="96.829462548688355" r="0.30706844684615053"/>
<circle cx="304.9915538389526" cy="96.568388065970339" r="0.076767111711537633"/>
<circle cx="307.78073174390886" cy="100.080489454052" r="0.85051727179971381"/>
<circle cx="307.78073174390886" cy="99.148131119614959" r="0.081841062637331832"/>
<circle cx="308.70144369857883" cy="99.548916159177182" r="0.21262931794992845"/>
<circle cx="308.93162168724632" cy="99.416022835458477" r="0.053157329487482113"/>
<circle cx="308.58817774696149" cy="100.54666862127053" r="0.081841062637331832"/>
<circle cx="308.6053998360473" cy="103.49383796998841" r="0.15272164587830439"/>
<circle cx="309.64454445013808" cy="106.03291490094708" r="0.45247729818233545"/>
<circle cx="310.19778142964253" cy="105.9153207507949" r="0.11311932454558386"/>
<circle cx="309.88979627778525" cy="110.12825257644562" r="0.26729179129149344"/>
<circle cx="310.22391101689959" cy="110.12825257644562" r="0.06682294782287336"/>
<circle cx="309.57606042828644" cy="113.02197063856616" r="0.17041013168470995"/>
<circle cx="309.07789980849356" cy="115.13901080542297" r="0.11507415765124719"/>
<circle cx="308.53824925532035" cy="116.73822637030452" r="0.081261490459814539"/>
<circle cx="308.01301490961987" cy="117.98009169191049" r="0.059470348295515015"/>
<circle cx="337.69660112501049" cy="108.24985497238168" r="1.6180339887498949"/>
<circle cx="336.08975151581404" cy="108.77195205929377" r="0.071507675352210462"/>
<circle cx="335.96163198574385" cy="107.88107589753557" r="0.15569539316045264"/>
<circle cx="336.33778616493788" cy="107.26261811619904" r="0.061553670743505061"/>
<circle cx="337.07160112501049" cy="106.32630276164716" r="0.40450849718747373"/>
<circle cx="336.91535112501049" cy="105.84541470896352" r="0.10112712429686843"/>
<circle cx="338.21562225533637" cy="106.65247218413155" r="0.061553670743505068"/>
<circle cx="338.88345774184467" cy="106.93171716041779" r="0.15569539316045264"/>
<circle cx="339.30345073420693" cy="107.7277578854696" r="0.071507675352210462"/>
<circle cx="354.78571577332798" cy="101.90327742126559" r="3.1911489080327753"/>
<circle cx="351.98186979442318" cy="103.57849740789264" r="0.075028410640435805"/>
<circle cx="351.53708136271507" cy="102.64475702616727" r="0.14103018954037622"/>
<circle cx="351.54364970852902" cy="101.90327742126559" r="0.050917156766193863"/>
<circle cx="351.44291440027655" cy="100.87215975470099" r="0.30706844684615059"/>
<circle cx="351.07613157862511" cy="100.75902223769322" r="0.076767111711537647"/>
<circle cx="352.29113082659376" cy="99.723824187812667" r="0.12139851853810939"/>
<circle cx="352.75647994946871" cy="99.358696182381792" r="0.063492655966728567"/>
<circle cx="353.89809397906657" cy="98.014352243303463" r="0.79778722700819382"/>
<circle cx="353.06239363580374" cy="97.756572826662321" r="0.076767111711537647"/>
<circle cx="353.67618853050124" cy="97.042120948812936" r="0.19944680675204846"/>
<circle cx="354.53918767408197" cy="97.419504224407021" r="0.076767111711537647"/>
<circle cx="355.50994165384219" cy="98.730236516375371" r="0.063492655966728567"/>
<circle cx="356.0876298305111" cy="98.857298064639821" r="0.1213985185381094"/>
<circle cx="357.35009055338958" cy="99.523885345679844" r="0.30706844684615059"/>
<circle cx="357.63146192806516" cy="99.262810862961828" r="0.076767111711537647"/>
<circle cx="357.70671636539475" cy="100.49659767460446" r="0.05091715676619387"/>
<circle cx="358.03435018394089" cy="101.1617978163639" r="0.14103018954037622"/>
<circle cx="358.03874442235679" cy="102.19605529886752" r="0.075028410640435819"/>
<circle cx="400.0" cy="91.16116523516817" r="8.8388347648318426"/>
<circle cx="393.71262857105808" cy="97.448536664110065" r="0.052851181654902039"/>
<circle cx="393.02833000655534" cy="96.720886531010265" r="0.078265850555255145"/>
<circle cx="392.23902989482758" cy="95.641963414562085" r="0.12276159395599781"/>
<circle cx="391.39612624669002" cy="93.956733281519931" r="0.2078134688887267"/>
<circle cx="391.14907330448938" cy="94.037005648453217" r="0.051953367222181676"/>
<circle cx="391.22637071428579" cy="92.70819279697352" r="0.070141894702475852"/>
<circle cx="390.77054023516814" cy="91.16116523516817" r="0.39062499999999956"/>
<circle cx="390.28225898516814" cy="91.16116523516817" r="0.097656249999999889"/>
<circle cx="391.24527900835915" cy="89.162957298719689" r="0.1410301895403763"/>
<circle cx="391.52576075984172" cy="88.407717995450952" r="0.071507675352210531"/>
<circle cx="391.60877499006659" cy="86.316489216852389" r="0.85051727179971459"/>
<circle cx="390.80132898701396" cy="86.782668384070917" r="0.081841062637331902"/>
<circle cx="390.68806303539662" cy="85.784915921977571" r="0.21262931794992865"/>
<circle cx="390.45788504672913" cy="85.652022598258867" r="0.053157329487482162"/>
<circle cx="391.60877499006659" cy="85.384130882415349" r="0.081841062637331902"/>
<circle cx="393.65977738940319" cy="84.820942624571359" r="0.12759403953870863"/>
<circle cx="394.6070209240213" cy="83.738366337511764" r="0.33624925598197863"/>
<circle cx="394.35996798182066" cy="83.398327134467579" r="0.084062313995494659"/>
<circle cx="396.08866976051553" cy="83.039204303818266" r="0.1758617698652577"/>
<circle cx="396.94018574509766" cy="82.754394662098647" r="0.10746361733333623"/>
<circle cx="400.0" cy="80.112621779128361" r="2.2097086912079607"/>
<circle cx="397.84903156167252" cy="80.811513790716305" r="0.051953367222181676"/>
<circle cx="397.69263505879206" cy="80.112621779128361" r="0.097656249999999889"/>
<circle cx="397.90219374751666" cy="78.901452774549412" r="0.21262931794992865"/>
<circle cx="397.67201575884917" cy="78.768559450830708" r="0.053157329487482162"/>
<circle cx="398.65175523100532" cy="78.256922054714266" r="0.084062313995494659"/>
<circle cx="400.0" cy="77.350485915118412" r="0.55242717280199016"/>
<circle cx="399.47554843687914" cy="77.047693663973675" r="0.053157329487482162"/>
<circle cx="400.0" cy="76.659951949115921" r="0.13810679320049754"/>
<circle cx="400.52445156312086" cy="77.047693663973675" r="0.053157329487482162"/>
<circle cx="401.34824476899468" cy="78.256922054714252" r="0.084062313995494659"/>
<circle cx="402.09780625248334" cy="78.901452774549412" r="0.21262931794992865"/>
<circle cx="402.32798424115083" cy="78.768559450830708" r="0.053157329487482162"/>
<circle cx="402.30736494120794" cy="80.112621779128361" r="0.097656249999999889"/>
<circle cx="402.15096843832748" cy="80.811513790716305" r="0.051953367222181683"/>
<circle cx="403.05981425490234" cy="82.754394662098647" r="0.10746361733333623"/>
<circle cx="403.91133023948447" cy="83.039204303818266" r="0.1758617698652577"/>
<circle cx="405.3929790759787" cy="83.738366337511764" r="0.33624925598197863"/>
<circle cx="405.64003201817934" cy="83.398327134467579" r="0.084062313995494659"/>
<circle cx="406.34022261059681" cy="84.820942624571359" r="0.12759403953870863"/>
<circle cx="408.39122500993341" cy="86.316489216852389" r="0.85051727179971459"/>
<circle cx="408.39122500993341" cy="85.384130882415349" r="0.081841062637331902"/>
<circle cx="409.31193696460338" cy="85.784915921977571" r="0.21262931794992865"/>
<circle cx="409.54211495327087" cy="85.652022598258867" r="0.053157329487482162"/>
<circle cx="409.19867101298604" cy="86.782668384070917" r="0.081841062637331902"/>
<circle cx="408.47423924015828" cy="88.407717995450952" r="0.071507675352210531"/>
<circle cx="408.75472099164085" cy="89.162957298719689" r="0.14103018954037633"/>
<circle cx="409.22945976483186" cy="91.16116523516817" r="0.39062499999999956"/>
<circle cx="409.71774101483186" cy="91.16116523516817" r="0.097656249999999889"/>
<circle cx="408.77362928571421" cy="92.70819279697352" r="0.070141894702475879"/>
<circle cx="408.60387375330998" cy="93.956733281519931" r="0.20781346888872673"/>
<circle cx="408.85092669551062" cy="94.037005648453217" r="0.051953367222181683"/>
<circle cx="407.76097010517242" cy="95.641963414562085" r="0.12276159395599781"/>
<circle cx="406.97166999344466" cy="96.720886531010265" r="0.078265850555255159"/>
<circle cx="406.28737142894192" cy="97.448536664110065" r="0.05285118165490206"/>
<circle cx="435.00523774832169" cy="101.47543156654729" r="1.5871299004605912"/>
<circle cx="433.37314363559665" cy="101.18764933941841" r="0.07014189470247581"/>
<circle cx="433.67243413939684" cy="100.35707654986668" r="0.15272164587830442"/>
<circle cx="434.28301781654886" cy="99.994661265968318" r="0.060378009361596943"/>
<circle cx="435.34974051699129" cy="99.521659277783428" r="0.3967824751151478"/>
<circle cx="435.43586620915869" cy="99.033216205592467" r="0.099195618778786951"/>
<circle cx="436.19035575922953" cy="100.3309764065919" r="0.06037800936159695"/>
<circle cx="436.64016340767932" cy="100.88036729130307" r="0.15272164587830442"/>
<circle cx="436.63733186104673" cy="101.76321379367616" r="0.07014189470247581"/>
<circle cx="463.25648393100016" cy="105.3165607859697" r="4.702282018339786"/>
<circle cx="458.59307575297885" cy="106.30779879395376" r="0.065309472476941466"/>
<circle cx="458.44364463176038" cy="105.3165607859697" r="0.11055728090000844"/>
<circle cx="458.58670562224006" cy="103.79925783641235" r="0.20781346888872654"/>
<circle cx="458.33965268003942" cy="103.71898546947907" r="0.051953367222181634"/>
<circle cx="459.15540755658049" cy="102.86628171900205" r="0.075028410640435791"/>
<circle cx="459.80727670390172" cy="101.48582807331489" r="0.45247729818233545"/>
<circle cx="459.42881869278125" cy="101.06550786982714" r="0.11311932454558386"/>
<circle cx="461.09087553559579" cy="101.06631499833895" r="0.067880345513124871"/>
<circle cx="461.74812023453944" cy="100.67429466929971" r="0.1788854381999832"/>
<circle cx="462.61272254248911" cy="100.56412337267581" r="0.093558897767962015"/>
<circle cx="463.09038141918802" cy="100.56000718678906" r="0.057170910969270551"/>
<circle cx="465.07284025101359" cy="99.726390842220226" r="1.1755705045849465"/>
<circle cx="463.90539567382353" cy="99.347065104830889" r="0.051953367222181634"/>
<circle cx="464.21053844423898" cy="98.768707664056521" r="0.11311932454558386"/>
<circle cx="465.52692933101696" cy="98.328848356282862" r="0.29389262614623662"/>
<circle cx="465.64045160101779" cy="97.979462734798517" r="0.073473156536559156"/>
<circle cx="466.33336911546769" cy="99.45845716090605" r="0.11311932454558386"/>
<circle cx="466.24028482820364" cy="100.10571657960956" r="0.051953367222181634"/>
<circle cx="466.1866957432016" cy="101.56606069638914" r="0.057170910969270551"/>
<circle cx="466.57071045860516" cy="101.85015160407377" r="0.093558897767962015"/>
<circle cx="467.20543135573075" cy="102.44748254104566" r="0.17888543819998323"/>
<circle cx="467.50672971863094" cy="103.15095239056534" r="0.067880345513124871"/>
<circle cx="468.29859938881651" cy="104.24482606071298" r="0.45247729818233545"/>
<circle cx="468.85183636832096" cy="104.12723191056081" r="0.11311932454558386"/>
<circle cx="468.01456231269981" cy="105.74479559124065" r="0.075028410640435805"/>
<circle cx="467.92626223976026" cy="106.83386373552705" r="0.20781346888872654"/>
<circle cx="468.1733151819609" cy="106.91413610246033" r="0.051953367222181634"/>
<circle cx="467.1501527152808" cy="108.14547674771649" r="0.11055728090000845"/>
<circle cx="466.4466253161217" cy="108.85957173236021" r="0.065309472476941466"/>
<circle cx="501.38888888888891" cy="124.38929312148883" r="2.7777777777777777"/>
<circle cx="498.60792991637538" cy="123.79818204414596" r="0.065309472476941452"/>
<circle cx="498.87694810829049" cy="122.93902343562195" r="0.1227615939559977"/>
<circle cx="499.86635410435429" cy="121.75218551838391" r="0.26729179129149344"/>
<circle cx="499.69929673479709" cy="121.46283366653206" r="0.06682294782287336"/>
<circle cx="501.08748621579775" cy="121.52163824222272" r="0.10567294625501705"/>
<circle cx="501.60060266665829" cy="121.56416909213036" r="0.055268022232529683"/>
<circle cx="503.125" cy="121.38226046945954" r="0.69444444444444442"/>
<circle cx="502.74436630386634" cy="120.7229835686833" r="0.06682294782287336"/>
<circle cx="503.55902777777777" cy="120.63050230645221" r="0.1736111111111111"/>
<circle cx="503.88626739226731" cy="121.38226046945954" r="0.06682294782287336"/>
<circle cx="503.72966117827053" cy="122.79338159693013" r="0.055268022232529683"/>
<circle cx="504.02305220016535" cy="123.21648805352125" r="0.10567294625501707"/>
<circle cx="504.43395845795817" cy="124.38929312148883" r="0.26729179129149344"/>
<circle cx="504.76807319707251" cy="124.38929312148883" r="0.06682294782287336"/>
<circle cx="503.90082966948734" cy="125.83956280735572" r="0.1227615939559977"/>
<circle cx="503.29128558458297" cy="126.50211869989639" r="0.065309472476941466"/>
<circle cx="525.80213215351046" cy="142.24911588609584" r="1.7709540372145234"/>
<circle cx="524.35635382724604" cy="141.09614614467702" r="0.078265850555255104"/>
<circle cx="525.09287217937663" cy="140.44195094470908" r="0.17041013168470998"/>
<circle cx="525.88460829870019" cy="140.41264182487888" r="0.067371095086083299"/>
<circle cx="527.18234688071516" cy="140.51838136072311" r="0.44273850930363084"/>
<circle cx="527.52740056251639" cy="140.08569772937994" r="0.11068462732590771"/>
<circle cx="527.57420930693206" cy="141.76005366677265" r="0.067371095086083299"/>
<circle cx="527.72181288864692" cy="142.5384612013018" r="0.17041013168470998"/>
<circle cx="527.24791047977487" cy="143.40208562751465" r="0.078265850555255104"/>
<circle cx="542.26697514378793" cy="157.73302485621207" r="1.1958857261409059"/>
<circle cx="541.38398480836759" cy="156.85003452079172" r="0.052851181654902012"/>
<circle cx="541.92767375849712" cy="156.46673484722831" r="0.11507415765124721"/>
<circle cx="543.32399877688601" cy="156.67600122311401" r="0.29897143153522648"/>
<circle cx="543.58825468516056" cy="156.41174531483949" r="0.074742857883806621"/>
<circle cx="543.53326515277172" cy="158.07232624150288" r="0.11507415765124721"/>
<circle cx="543.14996547920828" cy="158.61601519163241" r="0.052851181654902012"/>
<circle cx="553.85580869843602" cy="170.89964766666009" r="0.84449418105103424"/>
<circle cx="553.69505291311339" cy="169.98795630396117" r="0.081261490459814539"/>
<circle cx="554.66445879173659" cy="170.2211096716201" r="0.21112354526275856"/>
<circle cx="554.86662131506171" cy="170.05147517286011" r="0.05278088631568964"/>
<circle cx="554.72573447160551" cy="171.21627475411478" r="0.081261490459814539"/>
<circle cx="562.3033988749894" cy="182.07967827750264" r="0.61803398874989501"/>
<circle cx="562.2325803877809" cy="181.40588538010402" r="0.059470348295515015"/>
<circle cx="562.9283988749894" cy="181.62558919749929" r="0.15450849718747375"/>
<circle cx="562.92232988463036" cy="182.35524411722179" r="0.059470348295515015"/>
</g>
</svg>
